<?xml version="1.0" encoding="UTF-8"?>
<svg id="Layer_2" data-name="Layer 2" xmlns="http://www.w3.org/2000/svg" viewBox="0 0 138.06 37.22">
  <defs>
    <style>
      .cls-1 {
        fill: #ffcb05;
      }
    </style>
  </defs>
  <g id="Layer_1-2" data-name="Layer 1">
    <g>
      <path class="cls-1" d="M81.61,5.25c-.01.45.22.82.34,1.22,1.31,4.43,3.66,9.2,6.24,13.01.08.12-.02.34.28.18.07-.04.14-.17.23-.22,2.8-1.81,4.75-2.84,8.25-2.63,1.7.1,3.4.81,5.02,1.28.97-.46,1.82-1.09,2.81-1.52,2.14-.91,4.49-.8,6.74-.43.22.03,1.34.24,1.43.32.25.21-.31,1.34-.45,1.61-.94,1.97-2.34,3.56-2.95,5.73-.03.14-.39,1.68-.3,1.68.66-.3,1.62-.7,2.06-1.29.29-.38.43-.94.66-1.33,2.25-3.8,5.81-6.84,10.31-7.42.6-.07,1.24-.03,1.82-.16.14-.12.14-.33.23-.46,1.58-2.27,2.88-4.71,4.56-6.92,1.27-1.69,1.87-2.68,4.11-2.96,1.07-.14,1.3-.2.83.9-1.09,2.49-3.03,5.03-4.54,7.33-2.13,3.26-4.53,6.51-5.98,10.15-.12.3-.71,1.89-.55,2.08,1.07-.5,2.03-1.19,3.03-1.79.37-.41,1.66-.97,1.69-1.52.02-.66-.17-1.36-.04-2.09.37-2.2,4.43-4.48,6.47-4.63.48-.04,4.02-.01,4.15.16-.07.35-.2.87-.34,1.21-.08.21-.32.76-.42.94-.22.36-1.59,1.4-1.98,1.52-.55.17-1.17-.32-1.72-.38-1.04-.14-1.85.65-2.68,1.12l.04.15c.9-.1,1.8-.14,2.7-.2.14.1.12,1.7.03,1.87-.04.07-1.27.86-1.46.98-.89.54-1.89,1-2.76,1.58-.13.08-.92.66-.95.71s-.06.2-.03.23c.06.07,1.66.42,1.87.45.98.1,1.47-.15,2.31-.56,1.65-.81,3.14-1.95,4.83-2.7.23.04.27.21.28.41,0,.88-.24,2.23-.88,2.85-1.98,1.94-5.47,2.99-8.2,2.57-1.01-.16-2.4-.86-3.33-.71-.81.13-1.72.58-2.56.72-1.91.31-2.65,0-3.3-1.78-.08-.24-.16-.94-.41-.95-.13,0-1.74,1.24-2.07,1.43-1.71,1-2.52.78-4.39.93-1.51.12-3.05.29-4.57.31-1,.01-1.52-.95-1.82-1.75-.11-.28-.06-.81-.37-.75-.27.04-1.25.92-1.59,1.16-1.37.95-3.24,1.96-4.92,1.24-.85-.37-1.65-1.35-1.75-2.28-.22-2.3,1.25-3.98,2.21-5.9-.47-.07-.89-.28-1.35-.36-3.61-.69-5.27-.23-8.01,2.07-.17.14-.46.1-.36.45,2.83,4.53,6.34,8.56,9.63,12.74.01.12-.14.22-.22.29-.8.6-2.85,1.57-3.84,1.57-2.08,0-3.29-1.63-4.44-3.09-2.51-3.13-5.07-6.71-7.09-10.17-3.15-5.41-5.27-11.43-7.21-17.36-.16-.21-1.12-.3-1.45-.37-2.62-.67-5.73-1.51-7-4.18-.04-.1-.1-.16-.07-.28,1.22-.15,2.31.16,3.47.3.2.02.4-.01.59,0,1.05.13,2.55.49,3.57.3.18-.03,1.05-.58,1.25-.72.4-.28,1.29-1.27,1.75-1.06.69.76,1.18,1.73,1.75,2.59.06.1.16.1.27.12,1.71.23,4.24-.15,6.01-.23,8.18-.39,16.38-.39,24.56-1,3.9.43,8.42-.8,12.23-.29,1.26.17,2.01.97,2.32,2.17.27,1.06-.34,2.58-1.42,2.94-3.03,1.02-7.67.43-10.91.5-2.32.04-4.67.32-6.99.38-1.9.05-3.81-.07-5.71,0-3.14.11-6.25.62-9.43.47-2.98-.14-5.63-1.72-8.54-2.27-.19-.03-1.48-.22-1.54-.17M121.83,18.04c-.07,0-.7.25-.83.32-2.84,1.24-5.34,3.39-6.25,6.46-.06.22-.13.64.23.47.55-.27,1.38-.91,1.88-1.31,1.5-1.19,3.93-3.66,4.91-5.28.08-.14.41-.65.05-.64M108.32,18.1c-1.96.48-3.97,1.64-5.32,3.16-.75.84-1.74,2.48-2.06,3.57-.19.65-.05.77.53.46,1.48-.83,3.7-2.71,4.84-3.99.5-.56,1.58-1.89,1.88-2.53.1-.21.16-.42.14-.66"/>
      <path class="cls-1" d="M19.86,22.13c.12.02.18-.01.27-.07.21-.14.7-.63.91-.84.8-.78,1.52-1.7,2.28-2.51.11-.03.13.05.17.13.15.2.56,1.35.63,1.39.04.02.18,0,.22-.03.46-.76.85-1.57,1.34-2.31,1.61-2.48,4.85-6.45,8.09-4.15,1.56,1.1,1.29,2.53.82,4.16-.83,2.84-4.27,7.78-7,9.05-1.94.9-3.46-.18-3.78-2.18-.11-.65.01-1.48-.08-2.05-.1-.52-.42.17-.53.3-1.13,1.33-3.01,3.53-4.62,4.2-1.48.62-2.82-.55-2.83-2.07-.03-2.38,2.86-6.96,3.99-9.17.15-.29,1.21-2.4,1.11-2.5-.23.05-.48.35-.65.53-2.81,3.08-5.03,6.67-7.72,9.85-.54.65-1.96,2.31-2.66,2.59-.59.23-1.37-.18-1.6-.75-.36-.88.16-2.25.46-3.13.98-2.91,2.46-5.62,3.54-8.48.11-.28.3-.76.34-1.03.02-.11.07-.3-.11-.25-.68.74-1.38,1.63-1.93,2.48-2.53,3.89-4.69,8.32-6.65,12.51-.24.52-.52,1.17-.78,1.64-.41.74-.6,1.13-1.56.97-.53-.1-1.57-.77-1.52-1.37.24-2.45,3.17-6.89,4.48-9.15,2.92-5.07,6.02-10.41,9.57-15.08,1.34-1.76,2.56-3.14,4.98-2.49,1.09.29.97.49.69,1.48-.64,2.31-2.16,4.89-3.15,7.12-.63,1.41-1.61,3.44-1.95,4.9-.02.1-.04.23.1.17.11-.04,1.09-1.21,1.25-1.41,2.51-3.1,4.81-6.36,7.38-9.43,1.13-1.36,2.66-3.51,4.67-3.3.57.06,1.79.49,1.92,1.13.04.2-.3,1.03-.41,1.27-.84,1.8-2.14,3.48-3.15,5.22-1.47,2.53-3.04,5.26-4.38,7.86-.81,1.56-1.57,3.16-2.14,4.81M26.04,24.56c.17.11.81-.27,1.01-.38,1.81-1.06,4.78-4.77,4.91-6.88.02-.35-.22-1.74-.53-1.9-.17-.08-.86.52-1.03.66-2.2,1.78-4.41,5.29-4.44,8.19,0,.07.03.3.07.32"/>
      <path class="cls-1" d="M52.79,24.19c1.61-.54,2.42-1.95,3.1-3.4.8-1.69,1.43-3.46,2.24-5.14.37-.76.78-1.51,1.13-2.28.03-.07.08-.13.18-.13.15,0,1.53.74,1.56.95.06.39-.43,1.98-.58,2.45-.63,1.94-1.83,4.07-2.34,5.95-.03.11-.05.2-.03.31.12.02.18-.01.27-.07.72-.47,2.46-2.6,3.03-3.35.91-1.21,1.56-2.47,2.33-3.74.7-1.13,1.38-2.93,2.98-2.1.63.32.47.69.32,1.28-.66,2.56-2.23,4.9-3.24,7.33-.4.95-.84,2.01-1.05,3.02l4.61-4.33c.29-.08.37.65.39.87.11,1.1.02,1.59-.64,2.46-1.17,1.54-2.88,2.99-4.19,4.49-.98,1.11-1.99,2.36-2.76,3.63-.7,1.15-2.17,4.58-3.55,4.81-1.27.21-1.76-.65-1.78-1.78-.07-3.08,2.18-5.32,3.64-7.77.13-.21.93-1.6.85-1.7-.35.15-.65.48-.97.67-1.39.86-3.47.7-5.09.7-.53,0-1.26.1-1.8-.01-.7-.14-1.09-1.38-1.19-2-.03-.2.04-1.04-.2-1.09-.15-.03-1.81,1.75-2.17,2.01-.85.64-1.75,1.08-2.85.95-.38-.04-.74-.34-.94-.66-2.16-3.5,2.06-10.07,5.06-12.03,1.35-.87,2.59-1.03,4.03-1.52,1.11-.38,1.57-1.64,2.07-2.65.94-1.92,3.3-7.87,4.96-8.81.62-.35,1.79-.39,1.82.53.05,1.25-1.64,4.19-2.26,5.43-2.25,4.57-5.15,9.97-6.53,14.84-.18.64-.47,1.2-.41,1.9M52.19,16.28c-.33-.05-.6.15-.89.29-1.91.95-3.49,2.88-4.29,4.83-.15.35-.76,2.05-.75,2.3.04.65.49-.03.62-.15,1.8-1.62,3.4-3.69,4.62-5.8.1-.17.77-1.4.7-1.46"/>
      <path class="cls-1" d="M41.14,12.96c1.12-.1,2.08.18,2.98.86.4.31.8.69.85,1.21.33,3.48-2.83,8.65-5.48,10.81-2.59,2.1-5.51,2.52-5.71-1.68-.13-2.7.87-5.16,2.41-7.34,1-1.42,3.17-3.71,4.96-3.86M41.61,15.45c-.23-.19-1.55,1-1.78,1.21-2.08,1.92-3.51,4.46-3.69,7.34,0,.13-.04.54.12.57.07.02,1.24-.69,1.4-.81,1.64-1.21,3.64-4.09,4.22-6.04.25-.85.04-1.5-.27-2.28"/>
    </g>
  </g>
</svg>