<?xml version="1.0" encoding="UTF-8"?>
<svg id="Layer_2" data-name="Layer 2" xmlns="http://www.w3.org/2000/svg" xmlns:xlink="http://www.w3.org/1999/xlink" viewBox="0 0 142.45 110.07">
  <defs>
    <style>
      .cls-1 {
        fill: none;
      }

      .cls-2 {
        fill: #ffcb05;
      }

      .cls-3 {
        clip-path: url(#clippath-1);
      }

      .cls-4 {
        clip-path: url(#clippath);
      }
    </style>
    <clipPath id="clippath">
      <rect class="cls-1" width="142.45" height="110.07"/>
    </clipPath>
    <clipPath id="clippath-1">
      <rect class="cls-1" width="142.45" height="110.07"/>
    </clipPath>
  </defs>
  <g id="Layer_1-2" data-name="Layer 1">
    <g class="cls-4">
      <g class="cls-3">
        <g>
          <path class="cls-2" d="M83.93,32.86c-.01.45.22.82.34,1.22,1.31,4.43,3.66,9.2,6.24,13.01.08.12-.02.34.28.18.07-.04.14-.17.23-.22,2.8-1.81,4.75-2.84,8.25-2.63,1.7.1,3.4.81,5.02,1.28.97-.46,1.82-1.09,2.81-1.52,2.14-.91,4.49-.8,6.74-.43.22.03,1.34.24,1.43.32.25.21-.31,1.34-.45,1.61-.94,1.97-2.34,3.56-2.95,5.73-.03.14-.39,1.68-.3,1.68.66-.3,1.62-.7,2.06-1.29.29-.38.43-.94.66-1.33,2.25-3.8,5.81-6.84,10.31-7.42.6-.07,1.24-.03,1.82-.16.14-.12.14-.33.23-.46,1.58-2.27,2.88-4.71,4.56-6.92,1.27-1.69,1.87-2.68,4.11-2.96,1.07-.14,1.3-.2.83.9-1.09,2.49-3.03,5.03-4.54,7.33-2.13,3.26-4.53,6.51-5.98,10.15-.12.3-.71,1.89-.55,2.08,1.07-.5,2.03-1.19,3.03-1.79.37-.41,1.66-.97,1.69-1.52.02-.66-.17-1.36-.04-2.09.37-2.2,4.43-4.48,6.47-4.63.48-.04,4.02-.01,4.15.16-.07.35-.2.87-.34,1.21-.08.21-.32.76-.42.94-.22.36-1.59,1.4-1.98,1.52-.55.17-1.17-.32-1.72-.38-1.04-.14-1.85.65-2.68,1.12l.04.15c.9-.1,1.8-.14,2.7-.2.14.1.12,1.7.03,1.87-.04.07-1.27.86-1.46.98-.89.54-1.89,1-2.76,1.58-.13.08-.92.66-.95.71s-.06.2-.03.23c.06.07,1.66.42,1.87.45.98.1,1.47-.15,2.31-.56,1.65-.81,3.14-1.95,4.83-2.7.23.04.27.21.28.41,0,.88-.24,2.23-.88,2.85-1.98,1.94-5.47,2.99-8.2,2.57-1.01-.16-2.4-.86-3.33-.71-.81.13-1.72.58-2.56.72-1.91.31-2.65,0-3.3-1.78-.08-.24-.16-.94-.41-.95-.13,0-1.74,1.24-2.07,1.43-1.71,1-2.52.78-4.39.93-1.51.12-3.05.29-4.57.31-1,.01-1.52-.95-1.82-1.75-.11-.28-.06-.81-.37-.75-.27.04-1.25.92-1.59,1.16-1.37.95-3.24,1.96-4.92,1.24-.85-.37-1.65-1.35-1.75-2.28-.22-2.3,1.25-3.98,2.21-5.9-.47-.07-.89-.28-1.35-.36-3.61-.69-5.27-.23-8.01,2.07-.17.14-.46.1-.36.45,2.83,4.53,6.34,8.56,9.63,12.74.01.12-.14.22-.22.29-.8.6-2.85,1.57-3.84,1.57-2.08,0-3.29-1.63-4.44-3.09-2.51-3.13-5.07-6.71-7.09-10.17-3.15-5.41-5.27-11.43-7.21-17.36-.16-.21-1.12-.3-1.45-.37-2.62-.67-5.73-1.51-7-4.18-.04-.1-.1-.16-.07-.28,1.22-.15,2.31.16,3.47.3.2.02.4-.01.59,0,1.05.13,2.55.49,3.57.3.18-.03,1.05-.58,1.25-.72.4-.28,1.29-1.27,1.75-1.06.69.76,1.18,1.73,1.75,2.59.06.1.16.1.27.12,1.71.23,4.24-.15,6.01-.23,8.18-.39,16.38-.39,24.56-1,3.9.43,8.42-.8,12.23-.29,1.26.17,2.01.97,2.32,2.17.27,1.06-.34,2.58-1.42,2.94-3.03,1.02-7.67.43-10.91.5-2.32.04-4.67.32-6.99.38-1.9.05-3.81-.07-5.71,0-3.14.11-6.25.62-9.43.47-2.98-.14-5.63-1.72-8.54-2.27-.19-.03-1.48-.22-1.54-.17M124.15,45.65c-.07,0-.7.25-.83.32-2.84,1.24-5.34,3.39-6.25,6.46-.06.22-.13.64.23.47.55-.27,1.38-.91,1.88-1.31,1.5-1.19,3.93-3.66,4.91-5.28.08-.14.41-.65.05-.64M110.64,45.72c-1.96.48-3.97,1.64-5.32,3.16-.75.84-1.74,2.48-2.06,3.57-.19.65-.05.77.53.46,1.48-.83,3.7-2.71,4.84-3.99.5-.56,1.58-1.89,1.88-2.53.1-.21.16-.42.14-.66"/>
          <path class="cls-2" d="M22.18,49.75c.12.02.18-.01.27-.07.21-.14.7-.63.91-.84.8-.78,1.52-1.7,2.28-2.51.11-.03.13.05.17.13.15.2.56,1.35.63,1.39.04.02.18,0,.22-.03.46-.76.85-1.57,1.34-2.31,1.61-2.48,4.85-6.45,8.09-4.15,1.56,1.1,1.29,2.53.82,4.16-.83,2.84-4.27,7.78-7,9.05-1.94.9-3.46-.18-3.78-2.18-.11-.65.01-1.48-.08-2.05-.1-.52-.42.17-.53.3-1.13,1.33-3.01,3.53-4.62,4.2-1.48.62-2.82-.55-2.83-2.07-.03-2.38,2.86-6.96,3.99-9.17.15-.29,1.21-2.4,1.11-2.5-.23.05-.48.35-.65.53-2.81,3.08-5.03,6.67-7.72,9.85-.54.65-1.96,2.31-2.66,2.59-.59.23-1.37-.18-1.6-.75-.36-.88.16-2.25.46-3.13.98-2.91,2.46-5.62,3.54-8.48.11-.28.3-.76.34-1.03.02-.11.07-.3-.11-.25-.68.74-1.38,1.63-1.93,2.48-2.53,3.89-4.69,8.32-6.65,12.51-.24.52-.52,1.17-.78,1.64-.41.74-.6,1.13-1.56.97-.53-.1-1.57-.77-1.52-1.37.24-2.45,3.17-6.89,4.48-9.15,2.92-5.07,6.02-10.41,9.57-15.08,1.34-1.76,2.56-3.14,4.98-2.49,1.09.29.97.49.69,1.48-.64,2.31-2.16,4.89-3.15,7.12-.63,1.41-1.61,3.44-1.95,4.9-.02.1-.04.23.1.17.11-.04,1.09-1.21,1.25-1.41,2.51-3.1,4.81-6.36,7.38-9.43,1.13-1.36,2.66-3.51,4.67-3.3.57.06,1.79.49,1.92,1.13.04.2-.3,1.03-.41,1.27-.84,1.8-2.14,3.48-3.15,5.22-1.47,2.53-3.04,5.26-4.38,7.86-.81,1.56-1.57,3.16-2.14,4.81M28.36,52.17c.17.11.81-.27,1.01-.38,1.81-1.06,4.78-4.77,4.91-6.88.02-.35-.22-1.74-.53-1.9-.17-.08-.86.52-1.03.66-2.2,1.78-4.41,5.29-4.44,8.19,0,.07.03.3.07.32"/>
          <path class="cls-2" d="M55.11,51.8c1.61-.54,2.42-1.95,3.1-3.4.8-1.69,1.43-3.46,2.24-5.14.37-.76.78-1.51,1.13-2.28.03-.07.08-.13.18-.13.15,0,1.53.74,1.56.95.06.39-.43,1.98-.58,2.45-.63,1.94-1.83,4.07-2.34,5.95-.03.11-.05.2-.03.31.12.02.18-.01.27-.07.72-.47,2.46-2.6,3.03-3.35.91-1.21,1.56-2.47,2.33-3.74.7-1.13,1.38-2.93,2.98-2.1.63.32.47.69.32,1.28-.66,2.56-2.23,4.9-3.24,7.33-.4.95-.84,2.01-1.05,3.02l4.61-4.33c.29-.08.37.65.39.87.11,1.1.02,1.59-.64,2.46-1.17,1.54-2.88,2.99-4.19,4.49-.98,1.11-1.99,2.36-2.76,3.63-.7,1.15-2.17,4.58-3.55,4.81-1.27.21-1.76-.65-1.78-1.78-.07-3.08,2.18-5.32,3.64-7.77.13-.21.93-1.6.85-1.7-.35.15-.65.48-.97.67-1.39.86-3.47.7-5.09.7-.53,0-1.26.1-1.8-.01-.7-.14-1.09-1.38-1.19-2-.03-.2.04-1.04-.2-1.09-.15-.03-1.81,1.75-2.17,2.01-.85.64-1.75,1.08-2.85.95-.38-.04-.74-.34-.94-.66-2.16-3.5,2.06-10.07,5.06-12.03,1.35-.87,2.59-1.03,4.03-1.52,1.11-.38,1.57-1.64,2.07-2.65.94-1.92,3.3-7.87,4.96-8.81.62-.35,1.79-.39,1.82.53.05,1.25-1.64,4.19-2.26,5.43-2.25,4.57-5.15,9.97-6.53,14.84-.18.64-.47,1.2-.41,1.9M54.51,43.89c-.33-.05-.6.15-.89.29-1.91.95-3.49,2.88-4.29,4.83-.15.35-.76,2.05-.75,2.3.04.65.49-.03.62-.15,1.8-1.62,3.4-3.69,4.62-5.8.1-.17.77-1.4.7-1.46"/>
          <path class="cls-2" d="M43.46,40.57c1.12-.1,2.08.18,2.98.86.4.31.8.69.85,1.21.33,3.48-2.83,8.65-5.48,10.81-2.59,2.1-5.51,2.52-5.71-1.68-.13-2.7.87-5.16,2.41-7.34,1-1.42,3.17-3.71,4.96-3.86M43.93,43.06c-.23-.19-1.55,1-1.78,1.21-2.08,1.92-3.51,4.46-3.69,7.34,0,.13-.04.54.12.57.07.02,1.24-.69,1.4-.81,1.64-1.21,3.64-4.09,4.22-6.04.25-.85.04-1.5-.27-2.28"/>
          <path d="M60.4,69.9c1.93.19,3.59,1.72,1.86,3.46l-.83.5c2.23.35,2.99,2.55.86,3.79-1.92,1.11-4.38.72-6.49.63-.08-.08.15-2,.16-2.31.06-2.01-.17-4.03-.16-6.06,1.47.11,3.15-.15,4.6,0M57.93,73.48h1.63s.49-.16.56-.2c.87-.43.89-1.66-.11-2.01-.08-.03-.56-.15-.62-.15h-1.41l-.07,2.35h.01ZM60.1,74.7c-.69-.08-1.54.06-2.25,0l.07,2.31c.05.19,1.94.14,2.22.08,1.62-.28,1.63-2.2-.04-2.4"/>
          <path d="M30.13,69.9c1.8.18,3.47,1.53,2.01,3.31l-.99.65c2.47.46,2.88,2.8.56,3.94-1.87.92-4.19.56-6.19.47-.1-.08.15-2.14.16-2.47.06-1.95-.21-3.94-.16-5.9,1.47.11,3.15-.15,4.6,0M27.66,73.48h1.63c.19,0,.82-.33.95-.5.32-.38.34-1.13-.05-1.47-.15-.13-.88-.39-1.05-.39h-1.41l-.07,2.35h0ZM29.82,74.7c-.68-.1-1.54.06-2.25,0l.07,2.31c1.08.39,4.21.17,3.28-1.66-.17-.34-.74-.59-1.1-.65"/>
          <path d="M107.73,69.78c3.31-.25,6.14,2.08,4.87,5.55-1.68,4.53-10.24,4.04-9.87-1.2.19-2.62,2.57-4.17,5.01-4.35M107.19,71.29c-1.79.24-2.39,1.79-2.09,3.43.59,3.26,5.26,3.23,5.46-.13.14-2.25-1.05-3.61-3.37-3.29"/>
          <path d="M94.28,73.4h4.34l-.06-3.27,2.35-.31c-.03,1.74-.11,3.48-.23,5.21l.23,3.23h-2.35l.15-3.57h-4.49l.15,3.57h-2.35c-.03-.8.13-1.6.16-2.4.06-1.91-.19-3.83-.15-5.74.7-.06,1.48-.28,2.17-.31.1,0,.16-.01.22.07l-.12,3.5h-.02Z"/>
          <path d="M78.35,69.9c1.05.12,2.52.82,2.63,2.01.14,1.54-.74,2.01-1.89,2.68-.06.03-.13-.02-.1.13l2.81,2.9-2,.8c-.87-.99-1.59-2.2-2.48-3.15-.06-.06-.06-.19-.07-.19h-1.37l.23,3.19h-2.28c-.04-.83.13-1.65.16-2.47.06-1.95-.2-3.94-.16-5.9h4.53-.01ZM75.95,73.86h1.56c.1,0,.58-.22.7-.29.68-.42.88-1.54.21-2.07-.2-.16-.83-.38-1.06-.38h-1.34l-.07,2.74Z"/>
          <path d="M50.58,69.9c1.89.19,3.59,1.86,2.16,3.69-.45.57-.85.68-1.42,1.01-.06.03-.13-.02-.1.13l2.81,2.9-2.05.8-2.56-3.34h-1.34l.23,3.19h-2.28c-.02-.74.13-1.51.16-2.24.06-2.05-.16-4.08-.16-6.13,1.45.11,3.1-.15,4.53,0M49.67,71.12c-.43-.05-.95.04-1.41,0l-.07,2.74h1.56c.27,0,.85-.34,1.03-.57.82-1.05.07-2.03-1.1-2.16"/>
          <path d="M40.95,69.84l3.51,8.17-.19.12-2.24.22c-.17-.33-.68-2.27-.89-2.34-1.17.07-2.58-.15-3.72-.02-.13.01-.17,0-.25.13-.22.31-.66,2.01-.84,2.12-.71.1-1.41-.12-2.13-.04l3.66-8.21,3.1-.15h0ZM37.77,74.7h2.9l-1.21-3.22-.2-.05-1.48,3.28Z"/>
          <path d="M90.25,70.21l-.91,1.48-.28.33c-.92-.39-1.94-.76-2.96-.68-1.15.1-1.55.87-.37,1.43,1.51.72,5.66,1,4.25,3.74-.94,1.85-4.02,2.17-5.8,1.61-.29-.08-1.81-.74-1.76-1.04.02-.11,1.19-1.18,1.33-1.2.71.35,1.46.84,2.28.91.59.06,2.56,0,2.11-1.05-.3-.7-2.73-1.12-3.49-1.45-2.81-1.21-1.68-3.51.7-4.27,1.62-.52,3.3-.28,4.91.16"/>
          <path d="M71.85,69.9l-.15,1.29h-3.81l-.07,2.13h3.35l-.15,1.29h-3.27l.07,2.35h4.1c-.14.41-.05.94-.27,1.29h-6.12l.21-3-.21-5.37h6.31-.01Z"/>
          <path d="M116.8,75.15l.15,3.12h-2.28l.23-2.93-.23-5.44h4.53c.59,0,1.76.57,2.17,1.03,1.7,1.92-.86,4.22-2.78,4.22h-1.79ZM116.8,74.01h1.41c.2,0,.81-.24.99-.38.71-.53.72-1.8-.11-2.25-.14-.07-.69-.27-.81-.27h-1.34l-.15,2.9Z"/>
        </g>
      </g>
    </g>
  </g>
</svg>